<svg xmlns="http://www.w3.org/2000/svg" viewBox="0 0 611.34 80.71"><defs><style>.cls-1{fill:#8be2b3;}.cls-2{fill:#d34034;}.cls-3{fill:#598bd7;}</style></defs><g id="OBJECTS"><path class="cls-1" d="M37.76,49a8.06,8.06,0,0,0-2-2.39,16.93,16.93,0,0,0-3.23-1.79,34.61,34.61,0,0,0-4.16-1.46,38,38,0,0,1-6.47-2.44,23.68,23.68,0,0,1-5-3.26,14.05,14.05,0,0,1-3.27-4.19,11.65,11.65,0,0,1-1.18-5.28,12,12,0,0,1,1.37-5.73,13.77,13.77,0,0,1,3.69-4.36,17.12,17.12,0,0,1,5.42-2.71,22.14,22.14,0,0,1,6.51-.94,20.08,20.08,0,0,1,6.75,1.11,17.22,17.22,0,0,1,5.45,3.09,15.17,15.17,0,0,1,3.68,4.8,14,14,0,0,1,1.35,6.17H38.48a11.88,11.88,0,0,0-.8-3.43,8,8,0,0,0-1.76-2.68,8.53,8.53,0,0,0-2.82-1.73,10.72,10.72,0,0,0-3.81-.63,11.59,11.59,0,0,0-3.47.49A8.78,8.78,0,0,0,23.07,23a6.5,6.5,0,0,0-1.82,2.22,6.4,6.4,0,0,0-.64,2.9,5.42,5.42,0,0,0,.88,3,8,8,0,0,0,2.29,2.24A17.66,17.66,0,0,0,27.15,35c1.27.48,2.59.92,4,1.33a39.56,39.56,0,0,1,5.15,1.86,24.35,24.35,0,0,1,4.63,2.69,15.84,15.84,0,0,1,4.22,4.73A12.46,12.46,0,0,1,46.72,52a11.93,11.93,0,0,1-1.39,5.85,12.66,12.66,0,0,1-3.7,4.2,16.8,16.8,0,0,1-5.47,2.61,23.91,23.91,0,0,1-6.57.88,23.22,23.22,0,0,1-7.21-1.15A18.21,18.21,0,0,1,16.2,61a15.57,15.57,0,0,1-3.85-4.82,14.12,14.12,0,0,1-1.45-6.36h8.2a11.13,11.13,0,0,0,1,4,7.59,7.59,0,0,0,2.2,2.79,8.94,8.94,0,0,0,3.23,1.67,14.23,14.23,0,0,0,4.08.55,13.55,13.55,0,0,0,3.51-.44,8.37,8.37,0,0,0,2.82-1.34,6.54,6.54,0,0,0,1.86-2.12,5.84,5.84,0,0,0,.7-2.9A6.4,6.4,0,0,0,37.76,49Z"/><path class="cls-1" d="M71.09,58.51a8.24,8.24,0,0,0,2.51-1.32,6.54,6.54,0,0,0,1.69-2,5.26,5.26,0,0,0,.64-2.56h7.69a10.56,10.56,0,0,1-1.22,5.08A12.94,12.94,0,0,1,79,61.77a16.52,16.52,0,0,1-4.94,2.79,17.15,17.15,0,0,1-5.86,1,17.56,17.56,0,0,1-7.47-1.49,15.11,15.11,0,0,1-5.32-4,17,17,0,0,1-3.24-5.89,23.19,23.19,0,0,1-1.1-7.2v-1.2a23.43,23.43,0,0,1,1.08-7.17,16.92,16.92,0,0,1,3.23-5.92,15.51,15.51,0,0,1,5.35-4,17.47,17.47,0,0,1,7.43-1.49,18,18,0,0,1,6.2,1,14.56,14.56,0,0,1,4.91,2.87,13,13,0,0,1,3.2,4.41,13.4,13.4,0,0,1,1.11,5.64H75.93a7.13,7.13,0,0,0-.57-2.84A6.77,6.77,0,0,0,73.77,36a7.77,7.77,0,0,0-2.51-1.58,8.5,8.5,0,0,0-3.13-.58,7.54,7.54,0,0,0-6.94,3.76,11.17,11.17,0,0,0-1.48,3.83,22,22,0,0,0-.43,4.37V47a22.56,22.56,0,0,0,.43,4.43,11.28,11.28,0,0,0,1.45,3.81,7.52,7.52,0,0,0,2.7,2.73,8.11,8.11,0,0,0,4.27,1A9.75,9.75,0,0,0,71.09,58.51Z"/><path class="cls-1" d="M110.21,27.86V58.08h10.87v6.77H90.59V58.08H102V34.67H90.59V27.86Zm-8.64-11.39a4,4,0,0,1,1-1.46,4.32,4.32,0,0,1,1.48-.9,5.54,5.54,0,0,1,2-.33,4.59,4.59,0,0,1,3,.94,3.54,3.54,0,0,1,1.31,2.41,3.52,3.52,0,0,1-.51,2.62,3.63,3.63,0,0,1-2.19,1.48,3.49,3.49,0,0,1-1.7.86,4.42,4.42,0,0,1-2.19-.17,3.25,3.25,0,0,1-1.86-1.35,4,4,0,0,1-.64-2.28A4.69,4.69,0,0,1,101.57,16.47Z"/><path class="cls-1" d="M136,64.16a17.15,17.15,0,0,1-5.83-3.79,16.54,16.54,0,0,1-3.74-5.66,18.63,18.63,0,0,1-1.32-7.06v-1.4a21.61,21.61,0,0,1,1.37-7.86,18,18,0,0,1,3.76-6,16.68,16.68,0,0,1,5.56-3.85,17,17,0,0,1,6.75-1.35,17.45,17.45,0,0,1,7.07,1.35,14.48,14.48,0,0,1,5.16,3.74A16.4,16.4,0,0,1,158,38.05,24.32,24.32,0,0,1,159,45.36v3.53H133.39v.17a14.76,14.76,0,0,0,1.16,4.06,10,10,0,0,0,2.16,2.94,9.6,9.6,0,0,0,3.23,2.12,10.81,10.81,0,0,0,4.08.75,13.85,13.85,0,0,0,5.68-1.17A11.31,11.31,0,0,0,154,54.39l4.37,4.24a16.44,16.44,0,0,1-5.66,4.78,18.72,18.72,0,0,1-9.21,2.12A20,20,0,0,1,136,64.16Zm3.28-29.72a8.47,8.47,0,0,0-2.65,1.8,10.67,10.67,0,0,0-1.95,2.87,15.31,15.31,0,0,0-1.16,3.79H151v-.54a9.22,9.22,0,0,0-.58-3.2,8.66,8.66,0,0,0-1.64-2.78,7.59,7.59,0,0,0-2.58-1.87,8.84,8.84,0,0,0-3.61-.7A8.2,8.2,0,0,0,139.32,34.44Z"/><path class="cls-1" d="M165.82,27.86h7.39l.51,5.27a14.81,14.81,0,0,1,3.59-3.59A13.56,13.56,0,0,1,185,27.18a15.61,15.61,0,0,1,5.19.82,9.92,9.92,0,0,1,4,2.6,12,12,0,0,1,2.59,4.53,20.87,20.87,0,0,1,.93,6.65V64.85h-8.17V41.91a12.37,12.37,0,0,0-.51-3.83,5.94,5.94,0,0,0-1.51-2.46,5.75,5.75,0,0,0-2.39-1.31,12,12,0,0,0-3.21-.4,9.73,9.73,0,0,0-2.81.4,8.47,8.47,0,0,0-2.35,1.11,8.3,8.3,0,0,0-1.54,1.33A10.68,10.68,0,0,0,174,38.46V64.85h-8.17Z"/><path class="cls-1" d="M224.25,58.51a8.17,8.17,0,0,0,2.52-1.32,6.68,6.68,0,0,0,1.69-2,5.25,5.25,0,0,0,.63-2.56h7.69a10.55,10.55,0,0,1-1.21,5.08,13,13,0,0,1-3.37,4.08,16.39,16.39,0,0,1-4.94,2.79,17.15,17.15,0,0,1-5.86,1,17.56,17.56,0,0,1-7.47-1.49,15.08,15.08,0,0,1-5.31-4,17.07,17.07,0,0,1-3.25-5.89,23.19,23.19,0,0,1-1.09-7.2v-1.2a23.43,23.43,0,0,1,1.07-7.17,17.08,17.08,0,0,1,3.23-5.92,15.6,15.6,0,0,1,5.35-4,17.49,17.49,0,0,1,7.44-1.49,18,18,0,0,1,6.2,1,14.51,14.51,0,0,1,4.9,2.87,12.9,12.9,0,0,1,3.2,4.41,13.4,13.4,0,0,1,1.11,5.64h-7.69a7.3,7.3,0,0,0-.56-2.84A7.06,7.06,0,0,0,226.94,36a7.92,7.92,0,0,0-2.52-1.58,8.44,8.44,0,0,0-3.12-.58,8,8,0,0,0-4.26,1,7.92,7.92,0,0,0-2.68,2.72,11.18,11.18,0,0,0-1.49,3.83,22.79,22.79,0,0,0-.42,4.37V47a23.34,23.34,0,0,0,.42,4.43,11.49,11.49,0,0,0,1.45,3.81A7.62,7.62,0,0,0,217,57.94a8.09,8.09,0,0,0,4.27,1A9.68,9.68,0,0,0,224.25,58.51Z"/><path class="cls-1" d="M253.48,64.16a17.1,17.1,0,0,1-5.82-3.79,16.57,16.57,0,0,1-3.75-5.66,18.82,18.82,0,0,1-1.31-7.06v-1.4A21.4,21.4,0,0,1,244,38.39a17.88,17.88,0,0,1,3.76-6,16.54,16.54,0,0,1,5.55-3.85A17,17,0,0,1,260,27.18a17.42,17.42,0,0,1,7.07,1.35,14.43,14.43,0,0,1,5.17,3.74,16.39,16.39,0,0,1,3.14,5.78,24,24,0,0,1,1.06,7.31v3.53H250.84v.17A14.42,14.42,0,0,0,252,53.12a9.77,9.77,0,0,0,2.15,2.94,9.6,9.6,0,0,0,3.23,2.12,10.83,10.83,0,0,0,4.09.75,13.84,13.84,0,0,0,5.67-1.17,11.31,11.31,0,0,0,4.34-3.37l4.37,4.24a16.4,16.4,0,0,1-5.65,4.78A18.72,18.72,0,0,1,261,65.53,20,20,0,0,1,253.48,64.16Zm3.29-29.72a8.25,8.25,0,0,0-2.65,1.8,10.23,10.23,0,0,0-2,2.87A14.9,14.9,0,0,0,251,42.9H268.4v-.54a9.22,9.22,0,0,0-.58-3.2,8.49,8.49,0,0,0-1.64-2.78,7.4,7.4,0,0,0-2.58-1.87,8.82,8.82,0,0,0-3.6-.7A8.16,8.16,0,0,0,256.77,34.44Z"/><path class="cls-2" d="M322.13,34h-9.92V27.86h9.92V25.61a17,17,0,0,1,1.11-6.38,12.6,12.6,0,0,1,3.16-4.63,13.75,13.75,0,0,1,4.94-2.8,20.41,20.41,0,0,1,6.47-1c.85,0,1.67,0,2.48.12s1.6.18,2.38.29,1.29.2,1.95.33l2,.39L346,18.5a28.13,28.13,0,0,0-3.09-.65,25.53,25.53,0,0,0-3.91-.27,12.78,12.78,0,0,0-4,.54,6.79,6.79,0,0,0-2.72,1.61,6.35,6.35,0,0,0-1.49,2.46,10.73,10.73,0,0,0-.49,3.42v2.25H344V34H330.33V64.85h-8.2Z"/><path class="cls-2" d="M349.21,38.55a17.34,17.34,0,0,1,3.38-6,15.34,15.34,0,0,1,5.37-4,19,19,0,0,1,14.51,0,15.71,15.71,0,0,1,5.42,4,18,18,0,0,1,3.35,6A23.29,23.29,0,0,1,382.4,46v.72a23.3,23.3,0,0,1-1.16,7.49,17.81,17.81,0,0,1-3.35,5.94,15.35,15.35,0,0,1-5.39,4,17.41,17.41,0,0,1-7.23,1.44A17.62,17.62,0,0,1,358,64.13a15.29,15.29,0,0,1-5.4-4,17.2,17.2,0,0,1-3.38-5.94,23,23,0,0,1-1.16-7.49V46A23,23,0,0,1,349.21,38.55Zm7.54,12.9a11.69,11.69,0,0,0,1.65,3.89A7.83,7.83,0,0,0,365.27,59a7.93,7.93,0,0,0,4-1,8.1,8.1,0,0,0,2.81-2.65,12.31,12.31,0,0,0,1.62-3.89,20.44,20.44,0,0,0,.53-4.72V46a19.08,19.08,0,0,0-.55-4.64,13.2,13.2,0,0,0-1.6-3.9,8.75,8.75,0,0,0-2.82-2.67,8.72,8.72,0,0,0-8.07,0,8.28,8.28,0,0,0-2.79,2.67,11.84,11.84,0,0,0-1.65,3.9,19.59,19.59,0,0,0-.53,4.64v.72A19.9,19.9,0,0,0,356.75,51.45Z"/><path class="cls-2" d="M415.74,27.45a16.71,16.71,0,0,1,2.92.65l-1.16,8.07c-1.25-.27-2.49-.48-3.71-.62a34.3,34.3,0,0,0-3.64-.2,15.37,15.37,0,0,0-3.69.41A9.33,9.33,0,0,0,403.55,37a8.28,8.28,0,0,0-2.32,2.09,12.43,12.43,0,0,0-1.61,2.9V64.85h-8.16v-37h7.65l.34,5.13,0,.86A16.69,16.69,0,0,1,404.91,29a13.91,13.91,0,0,1,7-1.78A26.74,26.74,0,0,1,415.74,27.45Z"/><path class="cls-3" d="M463.7,53v11.9h-8.2V12.35h8.2v30.9l3.39-3.76,11-11.63H488L473.58,43.28l16.48,21.57H479.94l-11.79-16.1Z"/><path class="cls-3" d="M515.42,27.86V58.08h10.86v6.77H495.8V58.08h11.38V34.67H495.8V27.86Zm-8.65-11.39a4.2,4.2,0,0,1,1-1.46,4.37,4.37,0,0,1,1.49-.9,5.48,5.48,0,0,1,2-.33,4.59,4.59,0,0,1,3,.94,3.55,3.55,0,0,1,1.32,2.41,3.52,3.52,0,0,1-.51,2.62,3.66,3.66,0,0,1-2.19,1.48,3.57,3.57,0,0,1-1.71.86,4.43,4.43,0,0,1-2.19-.17,3.25,3.25,0,0,1-1.86-1.35,4.11,4.11,0,0,1-.63-2.28A4.68,4.68,0,0,1,506.77,16.47Z"/><path class="cls-3" d="M531.51,38.41a18.08,18.08,0,0,1,2.92-6,13,13,0,0,1,10.74-5.26,12,12,0,0,1,9.46,4.14v-19h8.17v52.5h-7.41L555,61a12.19,12.19,0,0,1-4.24,3.37A14,14,0,0,1,539,64.11a13.42,13.42,0,0,1-4.58-4,18.54,18.54,0,0,1-2.9-5.93,25.61,25.61,0,0,1-1-7.43v-.72A27.49,27.49,0,0,1,531.51,38.41Zm7.64,13a11.65,11.65,0,0,0,1.5,3.79,7.17,7.17,0,0,0,6.5,3.56,8.07,8.07,0,0,0,4.58-1.22,8.68,8.68,0,0,0,2.9-3.29V38.39a9,9,0,0,0-2.88-3.26,7.93,7.93,0,0,0-4.53-1.22,7.59,7.59,0,0,0-3.92,1,7.39,7.39,0,0,0-2.61,2.63,11.9,11.9,0,0,0-1.54,3.88,22.08,22.08,0,0,0-.48,4.7v.72A21.68,21.68,0,0,0,539.15,51.45Z"/><path class="cls-3" d="M593.69,53.12a4.57,4.57,0,0,0-1.42-1.43,14.08,14.08,0,0,0-2.77-1.16,35,35,0,0,0-4.27-1,40.6,40.6,0,0,1-5.86-1.61,18.62,18.62,0,0,1-4.57-2.32,10,10,0,0,1-2.94-3.08,8,8,0,0,1-1.06-4.13,9,9,0,0,1,1.08-4.29A10.87,10.87,0,0,1,575,30.5a15.2,15.2,0,0,1,4.81-2.43,20.87,20.87,0,0,1,6.27-.89,22.28,22.28,0,0,1,6.63.91,15.84,15.84,0,0,1,5,2.47,11.08,11.08,0,0,1,3.11,3.73,10.13,10.13,0,0,1,1.09,4.65H593.7a4.81,4.81,0,0,0-.42-2A5.3,5.3,0,0,0,592,35.28a7.15,7.15,0,0,0-2.46-1.42,10.68,10.68,0,0,0-3.52-.53,11.93,11.93,0,0,0-3.23.4,6.75,6.75,0,0,0-2.27,1.07,4.12,4.12,0,0,0-1.34,1.46,3.73,3.73,0,0,0-.44,1.76,3.87,3.87,0,0,0,.37,1.72,3.27,3.27,0,0,0,1.34,1.35A9.58,9.58,0,0,0,583,42.22a29.11,29.11,0,0,0,4,.92,48.83,48.83,0,0,1,6.19,1.51,19.44,19.44,0,0,1,4.78,2.18A10.44,10.44,0,0,1,601,50.05a8.41,8.41,0,0,1,1.09,4.37A9.1,9.1,0,0,1,601,58.93a10.69,10.69,0,0,1-3.23,3.52,16.35,16.35,0,0,1-5.06,2.29,24.15,24.15,0,0,1-6.53.83,22,22,0,0,1-7.09-1.06,16.29,16.29,0,0,1-5.18-2.81,11.7,11.7,0,0,1-3.21-3.93,10.09,10.09,0,0,1-1.1-4.51h7.93a5.62,5.62,0,0,0,.91,2.89,6.26,6.26,0,0,0,2,1.9,8.21,8.21,0,0,0,2.74,1.07,14.73,14.73,0,0,0,3.11.33A13.71,13.71,0,0,0,590,59a7.15,7.15,0,0,0,2.54-1.19,4.23,4.23,0,0,0,1.18-1.35,3.41,3.41,0,0,0,.39-1.63A3.47,3.47,0,0,0,593.69,53.12Z"/></g></svg>